<svg xmlns="http://www.w3.org/2000/svg" xmlns:xlink="http://www.w3.org/1999/xlink" viewBox="0 0 77.25 106"><defs><style>.cls-1{fill:url(#linear-gradient);}.cls-2{opacity:0.4;fill:url(#linear-gradient-2);}.cls-3{fill:#fff;}.cls-4{fill:#ef7c00;fill-rule:evenodd;}</style><linearGradient id="linear-gradient" x1="77.64" y1="77.64" x2="-6.15" y2="-6.15" gradientUnits="userSpaceOnUse"><stop offset="0" stop-color="#eb5a1f"/><stop offset="0.16" stop-color="#ec6022"/><stop offset="0.37" stop-color="#ef702b"/><stop offset="0.6" stop-color="#f38b3a"/><stop offset="0.85" stop-color="#f9b04f"/><stop offset="0.93" stop-color="#fbbe57"/></linearGradient><linearGradient id="linear-gradient-2" x1="38.63" y1="74.88" x2="38.63" y2="65.91" gradientTransform="translate(0 0)" gradientUnits="userSpaceOnUse"><stop offset="0" stop-color="#fff"/><stop offset="1" stop-color="#fff" stop-opacity="0"/></linearGradient></defs><title>Ресурс 1</title><g id="Слой_2" data-name="Слой 2"><g id="Layer_1" data-name="Layer 1"><circle class="cls-1" cx="38.62" cy="38.62" r="38.62"/><circle class="cls-2" cx="38.62" cy="38.83" r="35.37"/><path class="cls-3" d="M59.35,56.18c-.68-.38-.6-2-.6-2h0V44.35c0-1.18,0-2.16-1.33-2.16h-.74c-1.95,0-2.07-1-2.07-2.15l0-18.14a2.16,2.16,0,0,0-2.15-2.15H25.08a.7.7,0,0,0-.75.61v.19c0,.49.27.64.75.9.7.37.6,2,.6,2.95v5.25c0,7.15-1.38,9.4-3.81,12.47H20.35a2.16,2.16,0,0,0-2.15,2.15V57.91h7.39a2.16,2.16,0,0,0,2.15-2.15V53.09a2,2,0,0,1,1.69-2.15l1.42,0H46.09l1.43,0a2,2,0,0,1,1.69,2.15v2.67a2.16,2.16,0,0,0,2.15,2.15h8a.7.7,0,0,0,.75-.61v-.21C60.1,56.59,59.83,56.45,59.35,56.18ZM44.15,40c0,1.18-.12,2.15-2.07,2.15H32.91c1.95-2.61,2.87-6.26,2.87-11.33V28.12H42c1.18,0,2.15.13,2.15,2.07Z"/><path class="cls-3" d="M44.15,40c0,1.18-.12,2.15-2.07,2.15H32.91c1.95-2.61,2.87-6.26,2.87-11.33V28.12H42c1.19,0,2.15.13,2.15,2.07V40Zm15.19,16.2c-.68-.38-.6-2-.6-2h0V44.35c0-1.19,0-2.16-1.33-2.16h-.74c-1.94,0-2.07-1-2.07-2.15l0-18.14a2.16,2.16,0,0,0-2.15-2.15H25.08a.69.69,0,0,0-.76.61v.19c0,.49.27.64.76.9.7.37.6,2,.6,2.95v5.25c0,7.15-1.38,9.4-3.81,12.47H20.35a2.16,2.16,0,0,0-2.15,2.15V57.91h7.39a2.15,2.15,0,0,0,2.15-2.15V53.09a2,2,0,0,1,1.69-2.15l1.43,0H46.09l1.42,0a2,2,0,0,1,1.69,2.15v2.67a2.15,2.15,0,0,0,2.15,2.15h8a.69.69,0,0,0,.76-.61v-.21c0-.5-.27-.64-.76-.91Z"/><path class="cls-4" d="M19.2,102.81h2.18a2.15,2.15,0,0,0,1.5-.62h0l.14-.14,4.21-4.22v0a.3.3,0,0,1,.21-.08h0a.29.29,0,0,1,.29.29h0v3.86a.92.92,0,0,0,.91.92h3.58a.28.28,0,0,0,.3-.25h0v-.3c0-.2-.11-.26-.31-.37h0c-.28-.16-.24-.6-.24-.6h0V90.06H29.79a2.16,2.16,0,0,0-1.51.62h0l-.14.14L23.89,95a.3.3,0,0,1-.21.09h0a.29.29,0,0,1-.29-.29h0V91a.92.92,0,0,0-.92-.92H19a.29.29,0,0,0-.31.24v.32c0,.2.11.25.31.36h0c.28.15.25.6.25.6h0v11.23Zm44.59,0H66a2.16,2.16,0,0,0,1.5-.62h0l.14-.14,4.21-4.22v0a.29.29,0,0,1,.21-.08h0a.29.29,0,0,1,.29.29h0v3.86a.92.92,0,0,0,.91.92h3.58a.28.28,0,0,0,.3-.25h0v-.3c0-.2-.11-.26-.31-.37h0c-.28-.16-.24-.6-.24-.6h0V90.06H74.38a2.16,2.16,0,0,0-1.51.62h0l-.14.14L68.48,95a.3.3,0,0,1-.21.09h0a.29.29,0,0,1-.29-.29h0V91a.92.92,0,0,0-.92-.92H63.54a.29.29,0,0,0-.31.24v.32c0,.2.11.25.31.36h0c.28.15.24.6.24.6h0v11.23ZM0,106H3a.89.89,0,0,0,.88-.88h0V103.7a.88.88,0,0,1,.88-.88h7a.88.88,0,0,1,.88.88h0v1.42a.89.89,0,0,0,.88.88h3.27a.29.29,0,0,0,.31-.25h0v-.3c0-.2-.11-.26-.31-.37h0c-.28-.16-.24-.6-.24-.6h0v-4.34a.88.88,0,0,0-.83-.88h0c-.8,0-.85-.4-.85-.88h0V91a.92.92,0,0,0-.92-.92H2.82a.28.28,0,0,0-.31.25h0v.3c0,.2.11.26.31.37h0a.6.6,0,0,1,.25.51h0v2.62C3.06,97,2.5,98,1.5,99.22H.88a.89.89,0,0,0-.88.88V106Zm6-6.78A7.55,7.55,0,0,0,7.2,94.58h0V93.49H9.75c.49,0,.88.05.88.85h0v4c0,.49-.05.88-.85.88H6Zm49.31-9.54a6.5,6.5,0,0,0-6.61,6.6h0v.29a6.5,6.5,0,0,0,6.6,6.63h0a6.32,6.32,0,0,0,5.5-2.61h0l.53-.78-2.83-1.66a.84.84,0,0,0-1.15.31h0l0,.05a2.36,2.36,0,0,1-1.91.86h0c-1.4,0-2.38-1.17-2.38-2.83h0v-.22c0-1.66,1-2.82,2.39-2.82h0a2.37,2.37,0,0,1,1.9.87h0l0,.05a.84.84,0,0,0,1.14.31h0l2.84-1.65-.53-.78a6.32,6.32,0,0,0-5.49-2.63h0ZM44.58,102.81H48.5c.48,0,.6-.28.26-.62h0l-5.32-5.32a.88.88,0,0,1,0-1.24h0L49,90.07H44.21a2.43,2.43,0,0,0-1.5.62h0l-1.91,1.9c-.34.34-.62.23-.62-.26h0V91a.88.88,0,0,0-.88-.88H35.75a.29.29,0,0,0-.31.25v.31c0,.2.08.26.28.37h0c.28.15.24.6.24.6h0v11.21h3.31a.89.89,0,0,0,.88-.88h0l0-.72V99.29l2.9,2.9a2.45,2.45,0,0,0,1.5.62Z"/></g></g></svg>